<svg xmlns="http://www.w3.org/2000/svg" xmlns:xlink="http://www.w3.org/1999/xlink" viewBox="0 0 157.5 29.25"><defs><style>.cls-1{fill:none;}.cls-2{clip-path:url(#clip-path);}.cls-3{fill:#00366f;}</style><clipPath id="clip-path" transform="translate(-5.18 -41.36)"><rect class="cls-1" width="165.7" height="118.96"/></clipPath></defs><title>Asset 1</title><g id="Layer_2" data-name="Layer 2"><g id="svg1600"><g id="layer1"><g id="g2153"><g id="g2155"><g class="cls-2"><g id="g2157"><g id="g2163"><path id="path2165" class="cls-3" d="M18.82,58.75a6.89,6.89,0,0,1-2,5A6.47,6.47,0,0,1,12,65.78H9.77a4.38,4.38,0,0,0-3.25,1.36,4.52,4.52,0,0,0-1.34,3.29H12A11.3,11.3,0,0,0,20.22,67a11.21,11.21,0,0,0,3.44-8.27V47a4.62,4.62,0,0,0-3.42,1.45,4.77,4.77,0,0,0-1.43,3.47Z" transform="translate(-5.18 -41.36)"/></g><g id="g2167"><path id="path2169" class="cls-3" d="M34.78,56.59h8.45a4.61,4.61,0,0,1-4.61,4.63H34.78a2.26,2.26,0,0,1-2.28-2.28,2.31,2.31,0,0,1,.65-1.67,2.16,2.16,0,0,1,1.63-.68m1.61,14A11.68,11.68,0,0,1,24.75,58.93a11.33,11.33,0,0,1,3.43-8.3,11.2,11.2,0,0,1,8.22-3.44h6.83a4.5,4.5,0,0,1-1.35,3.29,4.44,4.44,0,0,1-3.26,1.36H36.4A6.38,6.38,0,0,0,31.58,54a7,7,0,0,0-2,5,6.91,6.91,0,0,0,2,4.95A6.42,6.42,0,0,0,36.4,66h2.22a4.43,4.43,0,0,1,3.26,1.36,4.5,4.5,0,0,1,1.35,3.29Z" transform="translate(-5.18 -41.36)"/></g><g id="g2171"><path id="path2173" class="cls-3" d="M67.86,47.37a4.52,4.52,0,0,1-1.34,3.29A4.38,4.38,0,0,1,63.27,52H58.66V70.44A4.63,4.63,0,0,1,55.24,69a4.76,4.76,0,0,1-1.43-3.47V52H49.2A4.38,4.38,0,0,1,46,50.66a4.52,4.52,0,0,1-1.34-3.29Z" transform="translate(-5.18 -41.36)"/></g><g id="g2175"><path id="path2177" class="cls-3" d="M77.36,51.84a6.39,6.39,0,0,0-4.83,2.09,7,7,0,0,0-2,5,6.92,6.92,0,0,0,2,5,6.7,6.7,0,0,0,9.67,0,6.91,6.91,0,0,0,2-5,7,7,0,0,0-2-5,6.44,6.44,0,0,0-4.84-2.09m0-4.65A11.76,11.76,0,0,1,89,58.93a11.66,11.66,0,0,1-19.9,8.27,11.72,11.72,0,0,1,0-16.57,11.2,11.2,0,0,1,8.22-3.44" transform="translate(-5.18 -41.36)"/></g><g id="g2179"><path id="path2181" class="cls-3" d="M95.06,58.87a6.89,6.89,0,0,1,2-5,6.47,6.47,0,0,1,4.84-2.07h2.22a4.39,4.39,0,0,0,3.24-1.36,4.52,4.52,0,0,0,1.34-3.29h-6.81A11.7,11.7,0,0,0,90.21,58.87V70.61a4.63,4.63,0,0,0,3.42-1.45,4.77,4.77,0,0,0,1.43-3.47Z" transform="translate(-5.18 -41.36)"/></g><g id="g2183"><path id="path2185" class="cls-3" d="M128.35,58.87a6.92,6.92,0,0,0-2-5,6.43,6.43,0,0,0-4.83-2.07h-6.8v7a7,7,0,0,0,2,5,6.62,6.62,0,0,0,9.66,0,7,7,0,0,0,2-5M114.71,46.28v.91h6.83a11.33,11.33,0,0,1,8.26,3.41,11.67,11.67,0,0,1,0,16.57,11.69,11.69,0,0,1-19.93-8.3V41.36a4.63,4.63,0,0,1,3.42,1.45,4.77,4.77,0,0,1,1.43,3.47" transform="translate(-5.18 -41.36)"/></g><g id="g2187"><path id="path2189" class="cls-3" d="M139.24,52.11a4.77,4.77,0,0,0-1.43-3.47,4.63,4.63,0,0,0-3.42-1.45v18.5a4.77,4.77,0,0,0,1.43,3.47,4.63,4.63,0,0,0,3.42,1.45Z" transform="translate(-5.18 -41.36)"/></g><g id="g2191"><path id="path2193" class="cls-3" d="M162.68,47.54a4.53,4.53,0,0,1-1.34,3.29,4.38,4.38,0,0,1-3.24,1.36h-4.61V70.61a4.63,4.63,0,0,1-3.42-1.45,4.77,4.77,0,0,1-1.43-3.47V52.2H144a4.38,4.38,0,0,1-3.24-1.36,4.52,4.52,0,0,1-1.34-3.29Z" transform="translate(-5.18 -41.36)"/></g></g></g></g></g></g></g></g></svg>